<svg width="650" height="600" viewBox="0 0 650 600" fill="none" xmlns="http://www.w3.org/2000/svg">
<path d="M432.577 106.494C430.254 106.948 419.459 113.409 417.578 116.928C412.117 127.142 421.838 284.361 425.065 287.462C427.759 290.052 503.944 290.95 507.472 284.149C509.793 279.675 519.208 132.785 513.998 117.795C513.38 116.019 505.625 106.418 504.197 106.085C490.339 102.855 483.42 101.47 469.152 100.835C455.817 100.245 445.324 104.008 432.577 106.494Z" fill="#8FB1EE"/>
<path d="M433.254 114.453C436.802 115.925 440.608 116.791 444.451 116.997C443.265 117.68 437.496 120.714 437.767 121.076C441.504 126.068 457.008 130.346 459.993 130.444C464.674 130.599 482.442 123.747 485.19 119.998C483.727 119.298 482.267 118.598 480.804 117.899C482.919 115.856 485.322 114.105 487.923 112.714C488.264 105.01 482.076 96.3343 476.918 95.0743C472.292 93.9434 450.763 95.8215 446.202 97.1885C437.614 99.7645 433.566 114.584 433.254 114.453Z" fill="white"/>
<path d="M477.539 109.834C477.623 113.937 468.393 130.745 459.992 130.444C453.164 130.2 446.881 113.263 446.593 112.439C446.442 112.008 446.498 108.036 446.347 102.471C446.121 93.9281 445.362 81.6745 442.483 72.9428C441.196 69.0457 473.297 65.0925 474.907 66.76C476.593 68.5396 476.329 71.1632 476.329 73.5049C476.347 77.1389 476.404 80.5317 476.498 83.697C476.801 95.2951 477.444 103.745 477.539 109.834Z" fill="#EECD8E"/>
<path d="M476.497 83.6987C474.055 89.1887 470.74 94.154 465.74 97.3753C460.777 100.58 453.183 102.266 446.346 102.471C446.119 93.9281 445.361 81.6745 442.482 72.9429C441.195 69.0457 473.296 65.0925 474.906 66.76C476.592 68.5396 476.327 71.1632 476.327 73.5049C476.346 77.1406 476.403 80.5317 476.497 83.6987Z" fill="#DDB77A"/>
<path d="M445.342 285.954C437.255 285.579 411.426 289.284 403.605 287.243C400.007 271.579 403.338 232.701 403.202 216.63C402.91 182.031 401.386 174.048 401.365 135.596C401.362 128.058 405.229 117.722 408.714 111.015C410.666 107.248 425.551 103.332 435.362 101.627C438.372 101.103 440.911 100.804 442.446 100.766C435.949 106.893 435.211 140.205 436.632 176.928C438.599 228.116 444.773 285.935 445.342 285.954Z" fill="white"/>
<path d="M275.909 124.083C274.261 124.212 272.588 124.824 270.995 124.385C268.674 123.749 267.541 121.237 266.533 119.072C265.527 116.907 263.864 114.518 261.456 114.596C258.941 114.677 258.968 118.002 259.42 120.451C259.871 122.9 261.528 125.041 263.248 126.858C259.523 129.358 255.82 131.12 255.211 128.768C252.693 119.07 245.282 117.7 242.857 117.338C240.689 117.014 238.27 118.033 238.107 120.196C237.872 123.302 241.044 127.153 241.774 130.079C242.931 134.725 242.177 138.02 244.052 139.75C249.093 144.404 252.564 142.275 258.859 141.759C265.153 141.241 269.007 141.66 273.753 145.783C279.323 150.625 288.436 145.016 289.099 137.894C289.696 131.49 282.447 123.574 275.909 124.083Z" fill="#EECD8E"/>
<path d="M289.088 134.24C288.774 133.829 288.381 133.377 287.86 133.386C287.509 133.391 287.201 133.612 286.922 133.824C281.695 137.786 276.619 141.941 271.706 146.278C271.399 146.549 271.073 146.857 271.018 147.261C270.952 147.747 271.303 148.181 271.632 148.546C274.47 151.676 277.596 154.549 280.958 157.12C281.3 157.382 281.667 157.65 282.096 157.701C282.814 157.788 283.44 157.256 283.969 156.769C286.571 154.369 295.724 149.732 296.642 146.488C297.7 142.764 291.149 136.942 289.088 134.24Z" fill="#8FB1EE"/>
<path d="M357.51 184.076C354.292 187.771 352.362 218.21 354.335 219.339C374.355 230.801 394.239 188.489 404.999 174.004C414.791 160.822 422.576 143.583 424.808 127.374C425.822 120.01 424.102 107.296 414.326 108.196C406.31 108.933 398.246 119.74 393.771 125.486C380.474 142.567 370.129 169.586 357.51 184.076Z" fill="white"/>
<path d="M295.409 137.712C286.938 143.131 281.026 148.127 273.873 155.162C284.543 165.177 347.125 217.377 354.333 219.34C368.489 223.195 372.506 215.715 373.383 208.77C374.575 199.337 367.932 191.763 357.507 184.077C340.23 171.335 312.526 152.28 295.409 137.712Z" fill="white"/>
<path d="M436.631 177.56L419.491 152.155L430.666 145.13L419.491 140.108C423.942 118.694 433.618 106.289 433.618 106.289C437.383 101.02 442.447 97.1887 446.204 97.1887C439.707 103.315 435.21 140.837 436.631 177.56Z" fill="#D8DAE5"/>
<path d="M478.344 285.954C486.43 285.579 515.172 288.826 522.995 286.785C526.593 271.121 520.523 241.973 520.154 225.907C519.405 193.305 521.29 180.977 519.68 142.569C519.357 135.036 518.458 115.851 514.973 109.143C513.022 105.377 498.136 103.336 488.326 101.631C485.315 101.106 482.776 100.807 481.243 100.77C487.74 106.897 488.478 140.209 487.057 176.932C485.086 228.116 478.912 285.935 478.344 285.954Z" fill="white"/>
<path d="M528.454 117.422C535.622 127.011 543.839 168.511 545.092 176.037C549.907 204.978 553.436 230.886 556.456 279.172C556.485 279.634 531.197 279.834 531.116 279.08C526.152 232.869 522.315 218.621 517.336 185.676C513.738 161.875 506.248 105.09 507.644 105.387C521.196 108.267 526.184 114.387 528.454 117.422Z" fill="white"/>
<path d="M487.056 177.56L504.196 152.154L493.021 145.129L504.196 140.108C499.745 118.693 488.324 102.26 488.324 102.26C483.221 95.7023 478.451 95.1114 476.918 95.074C483.413 101.199 488.476 140.836 487.056 177.56Z" fill="#D8DAE5"/>
<path d="M270.87 88.4281L246.588 88.6731L247.03 131.55L271.312 131.304L270.87 88.4281Z" fill="white"/>
<path d="M265.959 95.404L251.189 95.553L251.334 109.581L266.104 109.432L265.959 95.404Z" fill="#8FB1EE"/>
<path d="M266.379 112.214H251.531V114.087H266.379V112.214Z" fill="#748283"/>
<path d="M266.501 115.773H251.652V117.646H266.501V115.773Z" fill="#748283"/>
<path d="M266.618 119.334H251.77V121.207H266.618V119.334Z" fill="#748283"/>
<path d="M266.739 122.893H251.891V124.767H266.739V122.893Z" fill="#748283"/>
<path d="M513.243 148.064C510.291 136.33 511.255 125.844 511.317 114.044C511.32 113.268 510.213 113.153 509.98 113.866C506.444 124.666 508.493 137.835 511.616 148.509C511.918 149.538 513.506 149.107 513.243 148.064Z" fill="#EAEAEA"/>
<path d="M405.959 159.029C405.071 146.223 405.658 134.581 406.951 121.859C407.037 121.006 405.826 120.999 405.555 121.672C400.972 133.068 403.289 147.247 404.774 159.029C404.867 159.755 406.012 159.796 405.959 159.029Z" fill="#EAEAEA"/>
<path d="M355.575 185.944C351.718 190.222 349.766 195.528 348.738 201.102C348.604 201.83 348.827 202.57 349.504 202.963C350.02 203.262 350.218 203.302 350.788 203.129C351.55 202.898 351.936 202.289 352.012 201.54C352.53 196.345 353.917 191.348 357.132 187.131C357.808 186.247 356.319 185.119 355.575 185.944Z" fill="#EAEAEA"/>
<path d="M355.549 186.439C353.705 191.707 353.57 199.584 357.933 203.784C358.629 204.453 359.93 203.789 359.616 202.816C358.843 200.425 357.497 198.358 356.972 195.857C356.34 192.846 356.359 189.847 357.005 186.837C357.207 185.893 355.867 185.531 355.549 186.439Z" fill="#EAEAEA"/>
<path d="M443.15 133.856C455.051 137.682 468.136 139.714 479.375 132.961C480.549 132.256 479.524 130.609 478.314 131.166C466.562 136.578 455.803 135.336 443.622 132.161C442.512 131.872 442.069 133.508 443.15 133.856Z" fill="#79A0D8"/>
<path d="M424.783 80.1882C427.346 90.6299 436.866 95.4865 439.892 95.5018C445.847 95.5307 447.229 96.1929 453.048 94.938C459.988 93.442 464.932 88.7569 470.26 83.6048C485.53 68.8431 483.664 48.5914 477.622 28.333C474.743 18.6826 469.007 15.1811 463.249 14.7005C453.587 13.8939 433.364 13.6205 425.011 18.4958C416.128 23.6818 420.327 62.0218 424.783 80.1882Z" fill="#EECD8E"/>
<path d="M413.642 17.3788C413.659 20.9414 415.87 24.4073 419.112 25.9559C422.588 27.6167 426.67 27.0903 430.502 26.6233C439.651 25.5093 448.867 24.9489 458.085 24.9472C462.828 24.9456 468.122 25.3276 471.332 28.7799C473.92 31.5631 474.434 35.608 474.823 39.3693C475.282 43.7946 475.74 48.2182 476.2 52.6435C476.473 55.2823 476.653 69.5872 477.546 73.9887C478.073 76.5902 482.736 72.4095 484.829 70.7487C493.987 59.3357 496.004 14.0623 484.738 13.3101C482.999 13.1946 481.118 13.9112 479.581 13.0961C478.574 12.5612 478.071 11.4388 477.518 10.4471C474.924 5.78915 469.945 2.80046 464.757 1.40122C459.57 0.0019739 454.118 -0.00311523 448.742 0.000280994C436.537 0.0104697 413.556 0.0172649 413.642 17.3788Z" fill="#415557"/>
<path d="M485.122 49.552C484.235 47.7741 483.068 41.632 472.281 48.8796C470.784 49.8849 470.363 59.7152 472.746 62.1028C474.785 64.1439 478.622 63.6396 481.416 62.2216C486.219 59.7832 486.01 51.3283 485.122 49.552Z" fill="#EECD8E"/>
<path d="M423.256 39.4101C425.115 38.3488 426.667 37.3503 428.901 37.2416C430.656 37.1567 432.299 38.2893 433.95 37.9514C434.372 37.8648 434.709 37.3163 434.549 36.9071C433.73 34.8048 430.398 34.6248 428.443 34.8473C426.122 35.1105 423.41 36.3144 422.305 38.4693C421.998 39.0671 422.629 39.7684 423.256 39.4101Z" fill="#415557"/>
<path d="M447.119 36.9153C449.251 35.6995 451.536 34.9014 454.03 35.0168C456.389 35.1272 458.147 36.4449 460.352 36.9391C460.996 37.0834 461.528 36.4263 461.204 35.8421C458.454 30.8887 449.567 32.4374 446.205 35.7419C445.597 36.3414 446.374 37.3416 447.119 36.9153Z" fill="#415557"/>
<path d="M439.612 48.0059C440.398 53.9901 439.643 59.0742 434.782 63.002C433.048 64.4046 431.642 66.3541 432.3 68.7127C433.259 72.1599 439.542 73.6831 442.434 72.0461C443.038 71.7031 442.953 70.6741 442.233 70.5212C440.606 70.1765 438.926 70.5416 437.285 70.1171C436.607 69.9727 435.966 69.7248 435.365 69.375C433.714 67.2082 434.174 65.4524 436.747 64.1092C437.401 63.4554 438.117 63.0105 438.723 62.2854C442.063 58.2931 441.9 52.6078 441.094 47.8073C440.956 46.9871 439.502 47.1688 439.612 48.0059Z" fill="#415557"/>
<path d="M436.342 75.836C436.785 75.8532 437.229 75.8429 437.674 75.8515C438.019 75.8446 438.364 75.836 438.709 75.8291L436.342 75.836Z" fill="white"/>
<path d="M436.011 75.8891C436.462 77.796 439.657 84.4204 444.001 84.4204C448.178 84.4204 452.141 78.1883 451.99 74.7275C447.306 75.5868 436.565 75.8755 436.011 75.8891Z" fill="white"/>
<path d="M458.878 48.0054C458.878 50.8395 457.692 53.1354 456.23 53.1354C454.767 53.1354 453.581 50.8378 453.581 48.0054C453.581 45.1712 454.767 42.8754 456.23 42.8754C457.692 42.8754 458.878 45.1712 458.878 48.0054Z" fill="#415557"/>
<path d="M430.964 54.2856C432.427 54.2856 433.613 51.9888 433.613 49.1556C433.613 46.3223 432.427 44.0256 430.964 44.0256C429.501 44.0256 428.315 46.3223 428.315 49.1556C428.315 51.9888 429.501 54.2856 430.964 54.2856Z" fill="#415557"/>
<path d="M221.985 254.695H96.3012C94.2876 254.695 92.5865 253.218 92.3239 251.243L82.1705 174.723C81.8547 172.347 83.724 170.238 86.1477 170.238H211.832C213.846 170.238 215.547 171.715 215.809 173.69L225.963 250.21C226.279 252.586 224.409 254.695 221.985 254.695Z" fill="white"/>
<path d="M157.628 224.103C150.992 224.103 145.612 229.425 145.612 235.99V278.492H169.644V235.99C169.644 229.425 164.264 224.103 157.628 224.103Z" fill="#BCD8D6"/>
<path d="M213.182 272.158H102.389V278.492H213.182V272.158Z" fill="white"/>
<path d="M237.285 155.172H154.845V188.508H237.285V155.172Z" fill="#748283"/>
<path d="M228.946 162.889H163.184V180.794H228.946V162.889Z" fill="#BCD8D6"/>
<path d="M201.275 184.28H190.852V278.491H201.275V184.28Z" fill="#748283"/>
<path d="M325 600C504.493 600 650 588.867 650 575.133C650 561.399 504.493 550.266 325 550.266C145.507 550.266 0 561.399 0 575.133C0 588.867 145.507 600 325 600Z" fill="#ECEEED"/>
<path d="M61.7964 570.567L593.928 570.567V306.511L61.7964 306.511V570.567Z" fill="#D2F0F0"/>
<path d="M61.7964 315.001L593.928 315.001V306.51L61.7964 306.51V315.001Z" fill="#8EAFAF"/>
<path d="M61.7964 570.568L593.928 570.568V533.775L61.7964 533.775V570.568Z" fill="#BCD8D6"/>
<path d="M43.1553 306.511L613.504 306.511V278.492L43.1553 278.492V306.511Z" fill="#748283"/>
<path d="M133.314 338.776H90.1152V342.172H133.314V338.776Z" fill="white"/>
<path d="M133.314 355.87H90.1152V359.266H133.314V355.87Z" fill="white"/>
<path d="M133.314 372.967H90.1152V376.364H133.314V372.967Z" fill="white"/>
<path d="M133.314 390.063H90.1152V393.459H133.314V390.063Z" fill="white"/>
<path d="M133.314 407.159H90.1152V410.555H133.314V407.159Z" fill="white"/>
<path d="M133.314 424.253H90.1152V427.65H133.314V424.253Z" fill="white"/>
<path d="M133.314 441.348H90.1152V444.744H133.314V441.348Z" fill="white"/>
<path d="M133.314 458.445H90.1152V461.841H133.314V458.445Z" fill="white"/>
<path d="M133.314 475.54H90.1152V478.937H133.314V475.54Z" fill="white"/>
<path d="M133.314 492.635H90.1152V496.031H133.314V492.635Z" fill="white"/>
<path d="M517.062 385.622V373.895H505.209C504.269 373.895 503.505 373.139 503.505 372.208V351.415C503.505 350.485 504.267 349.729 505.209 349.729H517.062V338.003C517.062 337.073 517.824 336.317 518.767 336.317H539.786C540.728 336.317 541.49 337.073 541.49 338.003V349.729H553.343C554.284 349.729 555.048 350.485 555.048 351.415V372.208C555.048 373.139 554.286 373.895 553.343 373.895H541.49V385.622C541.49 386.552 540.728 387.308 539.786 387.308H518.767C517.824 387.308 517.062 386.552 517.062 385.622ZM538.081 372.208C538.081 371.278 538.844 370.522 539.786 370.522H551.639V353.1H539.786C538.845 353.1 538.081 352.344 538.081 351.413V339.688H520.47V351.413C520.47 352.344 519.707 353.1 518.765 353.1H506.912V370.522H518.765C519.706 370.522 520.47 371.278 520.47 372.208V383.934H538.081V372.208Z" fill="#70ACD1"/>
<path d="M514.292 359.903H527.867V343.656H526.153V358.208H514.292V359.903Z" fill="white"/>
<path d="M532.432 372.947H534.143V365.322H542.42V363.629H532.432V372.947Z" fill="white"/>
</svg>
