<svg width="30" height="29" viewBox="0 0 30 29" fill="none" xmlns="http://www.w3.org/2000/svg">
<path fill-rule="evenodd" clip-rule="evenodd" d="M17.6979 1.51166L28.8121 9.99815L28.8693 10.0569C29.0424 10.2345 29.3075 10.5174 29.5319 10.8549C29.7459 11.177 30 11.6613 30 12.2288V26.3387C30 27.5273 28.9694 28.4951 27.6923 28.4951H20.4924C19.5366 28.4951 18.7617 27.7719 18.7617 26.8797V21.8116C18.7617 19.8741 17.0836 18.308 15.0194 18.308C12.9553 18.308 11.2771 19.8741 11.2771 21.8116V26.8797C11.2771 27.7719 10.5023 28.4951 9.54639 28.4951H2.30769C1.03059 28.4951 0 27.5273 0 26.3387V12.064C0 11.3614 0.418835 10.7948 0.657531 10.5135C0.796719 10.3495 0.93315 10.2159 1.0342 10.1232C1.08542 10.0763 1.12935 10.0382 1.16238 10.0104C1.17894 9.99649 1.19289 9.98501 1.20381 9.97615L1.2179 9.96482L1.22316 9.96063L1.22628 9.95815C1.22628 9.95815 1.22718 9.95746 1.97019 10.7813L1.22718 9.95746L1.23868 9.94842L12.264 1.51407C13.7829 0.156402 16.1776 0.155335 17.6979 1.51166ZM2.71438 11.6045L2.70785 11.6099C2.69623 11.6197 2.67638 11.6369 2.65107 11.66C2.59905 11.7077 2.5314 11.7744 2.46651 11.8508C2.39961 11.9297 2.35154 12.0003 2.32355 12.0552C2.31532 12.0714 2.31044 12.083 2.30769 12.0903V26.3387L2.30776 26.3404L2.3085 26.3413H8.96947V21.8116C8.96947 18.6895 11.6755 16.1541 15.0194 16.1541C18.3633 16.1541 21.0693 18.6895 21.0693 21.8116V26.3413H27.6915L27.6923 26.3387V12.2288C27.6923 12.2324 27.6932 12.2327 27.6923 12.2288C27.6884 12.2133 27.6678 12.1361 27.5709 11.9904C27.474 11.8447 27.3467 11.6991 27.2169 11.5629L16.1585 3.11899L16.1208 3.08446C15.4878 2.50341 14.4751 2.50385 13.8427 3.08548L13.8051 3.12005L2.71438 11.6045Z" fill="#042331"/>
</svg>
