<svg width="30" height="29" viewBox="0 0 30 29" fill="none" xmlns="http://www.w3.org/2000/svg">
<path d="M13.2666 3.99305C11.9366 1.80276 9.66694 0.495117 7.19528 0.495117C5.82315 0.495117 4.48415 0.908414 3.32309 1.69038C1.70307 2.78139 0.583495 4.47154 0.170498 6.44937C-0.242499 8.42727 0.100612 10.4561 1.13665 12.1622L8.93036 24.9972C10.2604 27.1874 12.53 28.4951 15.0017 28.4951H15.0018C16.3738 28.4951 17.7129 28.0818 18.8739 27.2999C20.4939 26.2088 21.6135 24.5188 22.0265 22.5409C22.4395 20.563 22.0964 18.5341 21.0603 16.828L13.2666 3.99305ZM1.1055 6.66594C1.46355 4.95105 2.43429 3.48572 3.8389 2.53976C4.84558 1.86177 6.00626 1.50339 7.19528 1.50339C9.33876 1.50339 11.3069 2.63715 12.4601 4.53627L16.0991 10.529L5.58216 17.6118L1.94318 11.619C1.04493 10.1398 0.747456 8.38076 1.1055 6.66594ZM21.0915 22.3243C20.7334 24.0392 19.7627 25.5045 18.3581 26.4505C17.3513 27.1285 16.1907 27.4869 15.0017 27.4868C12.8582 27.4868 10.89 26.353 9.73689 24.454L6.09791 18.4612L16.6148 11.3784L20.2538 17.3711C21.152 18.8504 21.4494 20.6095 21.0915 22.3243Z" fill="#042331"/>
<path d="M5.61585 15.7947C5.70724 15.9451 5.86175 16.0272 6.01952 16.0272C6.10779 16.0272 6.19708 16.0016 6.27698 15.9477C6.49966 15.7978 6.56476 15.486 6.42231 15.2515L3.55692 10.5326C2.9342 9.50712 2.72799 8.28773 2.9762 7.09892C3.22441 5.91005 3.89735 4.89425 4.87103 4.23844C5.09371 4.08849 5.15881 3.77668 5.01636 3.54218C4.87391 3.3076 4.57796 3.23904 4.35522 3.38906C3.16607 4.18991 2.34429 5.43054 2.04113 6.88236C1.73804 8.33417 1.98988 9.82343 2.75033 11.0758L5.61585 15.7947Z" fill="#042331"/>
<path d="M15.0019 25.4703C13.5147 25.4703 12.1495 24.6842 11.3499 23.3675L8.48449 18.6486C8.34204 18.414 8.04609 18.3455 7.82335 18.4955C7.60067 18.6454 7.53557 18.9572 7.67802 19.1917L10.5435 23.9107C11.5198 25.5186 13.1865 26.4785 15.0019 26.4785C15.2662 26.4785 15.4805 26.2528 15.4805 25.9744C15.4805 25.696 15.2663 25.4703 15.0019 25.4703Z" fill="#042331"/>
<path d="M18.7862 17.7612C18.5636 17.9111 18.4985 18.2229 18.6409 18.4574C19.2636 19.4829 19.4698 20.7023 19.2216 21.8911C19.1648 22.163 19.3282 22.4319 19.5864 22.4917C19.621 22.4997 19.6556 22.5035 19.6896 22.5035C19.9095 22.5035 20.1075 22.343 20.1566 22.1076C20.4597 20.6557 20.2079 19.1665 19.4474 17.9142C19.305 17.6796 19.009 17.6111 18.7862 17.7612Z" fill="#042331"/>
<path d="M29.8301 6.44931C29.4171 4.47148 28.2976 2.78133 26.6775 1.69031C23.3333 -0.561814 18.8727 0.470991 16.734 3.99299L15.7337 5.64039C15.5913 5.8749 15.6563 6.18664 15.879 6.33666C16.1017 6.48661 16.3978 6.41812 16.5401 6.18355L17.5405 4.53614C19.3947 1.48262 23.2622 0.587001 26.1617 2.53969C27.5663 3.48566 28.537 4.95098 28.8951 6.66587C29.253 8.38069 28.9556 10.1397 28.0574 11.619L24.4184 17.6118L23.123 16.7393C22.9002 16.5894 22.6042 16.6579 22.4619 16.8924C22.3195 17.1269 22.3845 17.4387 22.6072 17.5887L23.9027 18.4611L23.1807 19.65C23.0383 19.8845 23.1033 20.1963 23.326 20.3463C23.4059 20.4 23.4952 20.4258 23.5835 20.4258C23.7413 20.4258 23.8959 20.3437 23.9872 20.1932L28.8639 12.1621C29.9 10.4561 30.2431 8.42721 29.8301 6.44931Z" fill="#042331"/>
<path d="M18.7498 5.85542C18.9076 5.85542 19.0621 5.77328 19.1535 5.62286C19.9522 4.30762 21.3178 3.52236 22.8066 3.52236C23.6306 3.52236 24.4341 3.77011 25.1302 4.23886C25.3528 4.38882 25.6489 4.32033 25.7912 4.08575C25.9336 3.85117 25.8686 3.5395 25.6458 3.38948C24.7956 2.81682 23.8137 2.51416 22.8066 2.51416C20.9896 2.51416 19.3225 3.47323 18.3469 5.07971C18.2046 5.31421 18.2696 5.62595 18.4923 5.77597C18.5722 5.82974 18.6615 5.85542 18.7498 5.85542Z" fill="#042331"/>
</svg>
