<svg width="30" height="35" viewBox="0 0 30 35" fill="none" xmlns="http://www.w3.org/2000/svg">
<path d="M12.4216 0.0175743C11.4224 0.148825 10.4629 0.662888 9.72209 1.45859C9.01559 2.22148 8.62543 3.08828 8.54371 4.07265C8.44617 5.25664 8.57798 6.17812 8.94968 6.93554C9.27393 7.58906 9.86444 8.18242 10.7212 8.71289C11.868 9.42383 13.1465 9.9543 15.4743 10.6926C16.9321 11.152 17.5912 11.3953 18.092 11.6551C18.8381 12.0434 19.2757 12.4918 19.4734 13.0742C19.5472 13.2902 19.5472 13.3039 19.5472 13.8945C19.5419 15.6199 19.1122 16.8531 18.1764 17.832C17.6518 18.3762 17.0455 18.7836 16.3521 19.0488L16.107 19.1418V20.025V20.9082H16.1887C16.3231 20.9082 16.8952 20.7797 17.23 20.673C18.063 20.4133 18.9093 19.9457 19.6131 19.3605C19.9031 19.1199 20.4488 18.5512 20.6782 18.2559C21.4664 17.225 21.9409 16.1176 22.1202 14.8789C22.1913 14.3949 22.1966 13.5965 22.1333 13.1836C21.8592 11.3871 20.7256 10.2168 18.5586 9.49219C17.9339 9.28437 17.317 9.14219 16.0015 8.90429C15.2924 8.77578 15.0683 8.72656 14.4989 8.57344C11.6017 7.79961 10.1755 6.39961 10.1729 4.32695C10.1729 2.80117 10.9875 1.5789 12.1843 1.3164C12.4374 1.25898 13.0121 1.25898 13.3258 1.3164C14.0112 1.44218 14.5147 1.73203 14.9312 2.24062C15.1553 2.51953 15.3557 2.95976 15.4084 3.28515C15.4295 3.42187 15.3873 3.48476 15.1316 3.69531C14.7335 4.02344 14.6571 4.16015 14.636 4.54297C14.6175 4.94219 14.7388 5.37422 14.9866 5.77617C15.2028 6.12617 15.7089 6.82344 15.8908 7.02304C16.1122 7.26367 16.2651 7.3539 16.4418 7.35117C16.7713 7.34297 17.0296 6.98203 17.2221 6.25195C17.259 6.10976 17.3513 5.76523 17.4251 5.48633C17.6465 4.65508 17.6544 4.40898 17.4831 4.02617C17.375 3.78554 17.2616 3.66523 17.027 3.54492C16.9057 3.47929 16.795 3.4 16.7555 3.34531C16.7186 3.29609 16.6342 3.09101 16.5657 2.88867C16.3627 2.2789 16.1887 1.90976 15.9119 1.51054C15.3767 0.73945 14.6492 0.255466 13.7423 0.0722618C13.4154 0.00663757 12.73 -0.0207062 12.4216 0.0175743Z" fill="#042331"/>
<path d="M0 12.4671C0 12.5902 0.155536 12.8636 0.303163 12.9976C0.703867 13.3667 1.27065 13.5964 1.95079 13.6621C2.92882 13.755 3.81722 14.0257 4.76889 14.5234C5.42267 14.8624 5.91037 15.1933 6.74605 15.8714C8.07997 16.9515 8.72584 17.4027 9.59578 17.8566C10.6555 18.4117 11.7258 18.7562 12.9306 18.9367C13.2627 18.9859 13.5053 19.0105 14.138 19.0652L14.341 19.0816V21.8242V24.5667L14.5387 24.5968C14.7522 24.6296 15.4402 24.6378 15.5773 24.6105L15.6591 24.5941V21.7011V18.8081L15.7988 18.7753C16.2337 18.6687 16.8216 18.398 17.1801 18.141C17.7944 17.7007 18.1977 17.2031 18.5589 16.4374C18.9332 15.6499 19.1125 14.8023 19.1125 13.8316C19.1125 13.4324 19.0808 13.2355 18.978 13.0249C18.8937 12.8499 18.725 12.6339 18.5773 12.5136L18.4455 12.4042H9.22408H0V12.4671Z" fill="#042331"/>
<path d="M22.4551 12.4207C22.4446 12.4289 22.4499 12.4754 22.463 12.5219C22.4762 12.5711 22.5131 12.7434 22.5448 12.9102C22.5949 13.1727 22.6028 13.3012 22.6054 13.9355C22.6054 14.507 22.5949 14.7258 22.5579 14.9691C22.471 15.5324 22.2996 16.1723 22.1151 16.6207C22.0755 16.7246 22.0492 16.8066 22.0571 16.8066C22.0808 16.8066 22.3998 16.5578 23.101 15.9945C24.1212 15.1715 24.5483 14.8762 25.2311 14.5234C26.1827 14.0258 27.0711 13.7551 28.0492 13.6621C28.7293 13.5965 29.2961 13.3668 29.6968 12.9977C29.8444 12.8637 29.9999 12.5902 29.9999 12.4672V12.4043H26.2354C24.1634 12.4043 22.463 12.4125 22.4551 12.4207Z" fill="#042331"/>
<path d="M13.5711 19.284C12.2635 19.5273 11.0588 20.5801 10.6265 21.8488C10.4577 22.341 10.4314 22.8359 10.5342 23.5059C10.7187 24.7199 11.5122 25.6004 12.9437 26.1828C13.7319 26.5055 14.4542 26.6504 15.2504 26.6504C17.1168 26.6504 19.0913 25.7262 19.9085 24.4656C20.2038 24.0145 20.3119 23.6398 20.2934 23.1504C20.2671 22.5242 20.0351 22.084 19.5843 21.7969C19.4182 21.6902 18.9885 21.5344 18.6906 21.4715C18.0527 21.3375 17.3778 21.4086 16.2073 21.7313L16.1071 21.7586V22.3875C16.1071 22.8961 16.115 23.0164 16.1414 23.0055C16.2838 22.948 16.6634 22.8934 16.9112 22.8934C17.2723 22.8906 17.4252 22.9316 17.5597 23.0711C17.6862 23.2023 17.7284 23.3473 17.7284 23.6562C17.7258 23.9297 17.6678 24.102 17.507 24.3125C17.2512 24.6406 16.6976 24.9059 16.0017 25.0289C15.6853 25.0863 14.7126 25.0945 14.42 25.0426C13.7029 24.9141 13.2231 24.698 12.8778 24.3398C12.5377 23.9898 12.4323 23.6316 12.4903 23.0219C12.5456 22.434 12.6853 22.0566 12.9595 21.7559C13.1546 21.5426 13.3602 21.4113 13.666 21.302L13.8927 21.2227V20.2328V19.2402L13.8347 19.243C13.8005 19.243 13.6845 19.2621 13.5711 19.284Z" fill="#042331"/>
<path d="M13.587 22.8441C13.4394 22.9453 13.2258 23.1066 13.1151 23.2023L12.9121 23.3746L12.9279 23.5004C12.9517 23.6863 13.0413 23.8558 13.2047 24.0281C13.4288 24.2605 13.4473 24.266 13.5817 24.1402C13.645 24.0828 13.7399 24.0035 13.7952 23.9625L13.8928 23.8859V23.2707C13.8928 22.9344 13.8849 22.6582 13.8743 22.6582C13.8611 22.6609 13.732 22.743 13.587 22.8441Z" fill="#042331"/>
<path d="M11.4966 26.1117C11.428 26.4672 11.4043 26.7871 11.4043 27.293C11.4043 27.807 11.4096 27.8535 11.4755 28.0805C11.7734 29.0867 12.5932 29.8141 13.9324 30.257C14.5967 30.4785 15.1108 30.5578 17.3068 30.7793C18.0607 30.8559 18.1372 30.8695 18.2848 30.9406C18.3744 30.9844 18.493 31.0609 18.5484 31.1156C18.7382 31.2906 18.8489 31.3535 18.9702 31.3535C19.0572 31.3535 19.0915 31.3398 19.1231 31.2934C19.1785 31.2113 19.1758 31.1402 19.1073 30.9516C18.9702 30.566 18.4166 30.1832 17.7022 29.9781C17.2461 29.8469 17.0141 29.8059 15.58 29.6008C14.7786 29.4887 14.3015 29.3164 13.8955 28.9883C13.3208 28.5289 13.0229 27.8863 12.9228 26.8883L12.9043 26.6996L12.6749 26.6094C12.3639 26.4836 12.0001 26.2922 11.7391 26.1172L11.5229 25.9695L11.4966 26.1117Z" fill="#042331"/>
<path d="M14.3408 27.8863V28.775L14.5517 28.8762C14.8022 28.9937 15.4375 29.1633 15.6405 29.166C15.651 29.166 15.6589 28.6848 15.6589 28.0996V27.0332H15.1C14.7916 27.0332 14.4937 27.025 14.441 27.0168L14.3408 26.9977V27.8863Z" fill="#042331"/>
<path d="M14.3352 31.6461C14.3247 32.5129 14.322 32.5348 14.1533 32.7344C13.9213 33.0078 13.5233 33.1746 12.6797 33.3496C12.1103 33.4699 11.786 33.5574 11.4934 33.6695C11.2377 33.768 10.9213 33.943 10.8607 34.0168C10.7737 34.1289 10.3414 34.2055 9.34487 34.293C8.65946 34.3531 8.35102 34.4297 7.95296 34.643C7.73942 34.7551 7.5918 34.8836 7.5918 34.952C7.5918 34.9848 8.60937 34.9902 14.9995 34.9902C21.3897 34.9902 22.4073 34.9848 22.4073 34.952C22.4073 34.8426 22.0224 34.5937 21.6691 34.4734C21.3581 34.3695 21.163 34.3367 20.5224 34.2793C19.4969 34.1863 19.286 34.1426 19.0962 33.984C18.7957 33.7352 18.2737 33.5492 17.3194 33.3496C16.4758 33.1746 16.0777 33.0078 15.8458 32.7344C15.6797 32.5375 15.6744 32.5047 15.6639 31.7418C15.6559 31.1813 15.648 31.0527 15.6164 31.0527C15.5294 31.0527 14.7544 30.9406 14.583 30.9023C14.4776 30.8805 14.38 30.8613 14.3668 30.8613C14.3537 30.8613 14.3405 31.2141 14.3352 31.6461Z" fill="#042331"/>
</svg>
